<svg width="261" height="140" viewBox="0 0 261 140" fill="none" xmlns="http://www.w3.org/2000/svg">
<g filter="url(#filter0_dd_15_716)">
<rect x="40.5" y="20" width="180" height="60" rx="7" fill="white"/>
<path d="M162.789 48.8015V52.2381H160.635V54.4917H162.789V62.1492C162.789 64.7639 163.972 65.8098 166.947 65.8098C167.47 65.8098 167.968 65.7476 168.404 65.6729V63.4441C168.031 63.4815 167.794 63.5064 167.383 63.5064C166.051 63.5064 165.466 62.8838 165.466 61.4644V54.4917H168.404V52.2381H165.466V48.8015H162.789Z" fill="#212121"/>
<path d="M175.985 65.9966C179.944 65.9966 182.372 63.3445 182.372 58.9492C182.372 54.5789 179.932 51.9143 175.985 51.9143C172.026 51.9143 169.585 54.5789 169.585 58.9492C169.585 63.3445 172.013 65.9966 175.985 65.9966ZM175.985 63.6184C173.657 63.6184 172.349 61.9126 172.349 58.9492C172.349 56.0108 173.657 54.2925 175.985 54.2925C178.301 54.2925 179.621 56.0108 179.621 58.9492C179.621 61.9002 178.301 63.6184 175.985 63.6184Z" fill="#212121"/>
<path d="M184.45 65.7351H187.127V57.729C187.127 55.824 188.559 54.5415 190.588 54.5415C191.061 54.5415 191.858 54.6287 192.082 54.7034V52.0637C191.796 51.989 191.286 51.9517 190.887 51.9517C189.119 51.9517 187.612 52.9229 187.226 54.2551H187.027V52.1758H184.45V65.7351Z" fill="#212121"/>
<path d="M198.729 54.1929C200.709 54.1929 202.004 55.575 202.066 57.7041H195.218C195.367 55.5874 196.75 54.1929 198.729 54.1929ZM202.054 62.0745C201.556 63.1328 200.448 63.718 198.829 63.718C196.687 63.718 195.305 62.2114 195.218 59.8333V59.6839H204.793V58.75C204.793 54.4917 202.514 51.9143 198.742 51.9143C194.919 51.9143 192.491 54.666 192.491 58.999C192.491 63.3321 194.869 65.9966 198.754 65.9966C201.855 65.9966 204.021 64.5025 204.631 62.0745H202.054Z" fill="#212121"/>
<path d="M145.233 60.7279C145.44 64.0574 148.215 66.1868 152.344 66.1868C156.758 66.1868 159.52 63.9542 159.52 60.3923C159.52 57.5919 157.945 56.0433 154.125 55.1528L152.073 54.6495C149.647 54.0817 148.666 53.3203 148.666 51.991C148.666 50.3133 150.189 49.2164 152.473 49.2164C154.641 49.2164 156.138 50.2875 156.409 52.0039H159.223C159.055 48.8679 156.293 46.6611 152.512 46.6611C148.447 46.6611 145.737 48.8679 145.737 52.1846C145.737 54.9205 147.272 56.5466 150.641 57.3338L153.041 57.9145C155.506 58.4953 156.59 59.347 156.59 60.7666C156.59 62.4185 154.887 63.6187 152.564 63.6187C150.073 63.6187 148.344 62.4959 148.098 60.7279H145.233Z" fill="#212121"/>
<path d="M117.502 51.9517C115.66 51.9517 114.066 52.8731 113.244 54.417H113.045V52.1758H110.467V70.2425H113.144V63.6807H113.356C114.066 65.1126 115.597 65.9592 117.527 65.9592C120.951 65.9592 123.13 63.2573 123.13 58.9492C123.13 54.6411 120.951 51.9517 117.502 51.9517ZM116.743 63.5562C114.502 63.5562 113.095 61.7881 113.095 58.9617C113.095 56.1228 114.502 54.3548 116.755 54.3548C119.021 54.3548 120.379 56.0855 120.379 58.9492C120.379 61.8255 119.021 63.5562 116.743 63.5562Z" fill="#212121"/>
<path d="M132.498 51.9517C130.655 51.9517 129.061 52.8731 128.239 54.417H128.04V52.1758H125.463V70.2425H128.14V63.6807H128.351C129.061 65.1126 130.593 65.9592 132.522 65.9592C135.947 65.9592 138.126 63.2573 138.126 58.9492C138.126 54.6411 135.947 51.9517 132.498 51.9517ZM131.738 63.5562C129.497 63.5562 128.09 61.7881 128.09 58.9617C128.09 56.1228 129.497 54.3548 131.751 54.3548C134.017 54.3548 135.374 56.0855 135.374 58.9492C135.374 61.8255 134.017 63.5562 131.738 63.5562Z" fill="#212121"/>
<path d="M105.664 65.7351H108.736L102.012 47.1128H98.9021L92.1785 65.7351H95.1467L96.8631 60.7924H103.961L105.664 65.7351ZM100.309 50.494H100.528L103.225 58.3662H97.5987L100.309 50.494Z" fill="#212121"/>
<path d="M93.9767 33.0665V42.05H97.2202C99.8972 42.05 101.447 40.4003 101.447 37.5303C101.447 34.7039 99.8848 33.0665 97.2202 33.0665H93.9767ZM95.3712 34.3365H97.0646C98.926 34.3365 100.028 35.5194 100.028 37.549C100.028 39.6096 98.9447 40.78 97.0646 40.78H95.3712V34.3365Z" fill="#616161"/>
<path d="M106.195 42.1808C108.175 42.1808 109.389 40.8547 109.389 38.6571C109.389 36.4719 108.169 35.1396 106.195 35.1396C104.215 35.1396 102.995 36.4719 102.995 38.6571C102.995 40.8547 104.209 42.1808 106.195 42.1808ZM106.195 40.9917C105.031 40.9917 104.377 40.1388 104.377 38.6571C104.377 37.1879 105.031 36.3287 106.195 36.3287C107.353 36.3287 108.013 37.1879 108.013 38.6571C108.013 40.1326 107.353 40.9917 106.195 40.9917Z" fill="#616161"/>
<path d="M119.727 35.2704H118.388L117.181 40.4438H117.075L115.68 35.2704H114.398L113.003 40.4438H112.904L111.69 35.2704H110.333L112.2 42.05H113.576L114.971 37.0571H115.076L116.477 42.05H117.866L119.727 35.2704Z" fill="#616161"/>
<path d="M121.268 42.05H122.607V38.0844C122.607 37.026 123.236 36.3661 124.226 36.3661C125.215 36.3661 125.689 36.9077 125.689 37.9972V42.05H127.027V37.661C127.027 36.0486 126.193 35.1396 124.68 35.1396C123.659 35.1396 122.987 35.5941 122.657 36.3474H122.557V35.2704H121.268V42.05Z" fill="#616161"/>
<path d="M129.135 42.05H130.474V32.6245H129.135V42.05Z" fill="#616161"/>
<path d="M135.508 42.1808C137.487 42.1808 138.701 40.8547 138.701 38.6571C138.701 36.4719 137.481 35.1396 135.508 35.1396C133.528 35.1396 132.308 36.4719 132.308 38.6571C132.308 40.8547 133.522 42.1808 135.508 42.1808ZM135.508 40.9917C134.343 40.9917 133.69 40.1388 133.69 38.6571C133.69 37.1879 134.343 36.3287 135.508 36.3287C136.666 36.3287 137.325 37.1879 137.325 38.6571C137.325 40.1326 136.666 40.9917 135.508 40.9917Z" fill="#616161"/>
<path d="M142.689 41.0353C141.961 41.0353 141.432 40.6804 141.432 40.0703C141.432 39.4727 141.855 39.1552 142.789 39.0929L144.445 38.9871V39.5536C144.445 40.394 143.698 41.0353 142.689 41.0353ZM142.347 42.1621C143.237 42.1621 143.978 41.7761 144.383 41.0975H144.489V42.05H145.777V37.4182C145.777 35.9863 144.819 35.1396 143.119 35.1396C141.581 35.1396 140.486 35.8867 140.349 37.0509H141.644C141.793 36.5715 142.31 36.2976 143.057 36.2976C143.972 36.2976 144.445 36.7023 144.445 37.4182V38.0034L142.608 38.1093C140.996 38.2089 140.087 38.9124 140.087 40.1326C140.087 41.3715 141.04 42.1621 142.347 42.1621Z" fill="#616161"/>
<path d="M150.319 42.1621C151.253 42.1621 152.044 41.7201 152.449 40.9792H152.554V42.05H153.837V32.6245H152.498V36.3474H152.399C152.032 35.6003 151.247 35.1583 150.319 35.1583C148.607 35.1583 147.506 36.5155 147.506 38.6571C147.506 40.8049 148.595 42.1621 150.319 42.1621ZM150.699 36.3599C151.82 36.3599 152.523 37.2501 152.523 38.6633C152.523 40.0828 151.826 40.9606 150.699 40.9606C149.566 40.9606 148.888 40.0952 148.888 38.6571C148.888 37.2314 149.572 36.3599 150.699 36.3599Z" fill="#616161"/>
<path d="M162.517 42.1808C164.496 42.1808 165.71 40.8547 165.71 38.6571C165.71 36.4719 164.49 35.1396 162.517 35.1396C160.537 35.1396 159.317 36.4719 159.317 38.6571C159.317 40.8547 160.531 42.1808 162.517 42.1808ZM162.517 40.9917C161.352 40.9917 160.699 40.1388 160.699 38.6571C160.699 37.1879 161.352 36.3287 162.517 36.3287C163.675 36.3287 164.335 37.1879 164.335 38.6571C164.335 40.1326 163.675 40.9917 162.517 40.9917Z" fill="#616161"/>
<path d="M167.482 42.05H168.821V38.0844C168.821 37.026 169.449 36.3661 170.439 36.3661C171.429 36.3661 171.902 36.9077 171.902 37.9972V42.05H173.241V37.661C173.241 36.0486 172.407 35.1396 170.894 35.1396C169.873 35.1396 169.2 35.5941 168.87 36.3474H168.771V35.2704H167.482V42.05Z" fill="#616161"/>
<path d="M179.405 33.5833V35.3015H178.328V36.4283H179.405V40.2571C179.405 41.5645 179.997 42.0874 181.485 42.0874C181.746 42.0874 181.995 42.0563 182.213 42.0189V40.9045C182.026 40.9232 181.908 40.9357 181.703 40.9357C181.037 40.9357 180.744 40.6244 180.744 39.9147V36.4283H182.213V35.3015H180.744V33.5833H179.405Z" fill="#616161"/>
<path d="M184.01 42.05H185.348V38.0906C185.348 37.0634 185.958 36.3723 187.054 36.3723C188 36.3723 188.505 36.9202 188.505 38.0034V42.05H189.843V37.6735C189.843 36.061 188.953 35.1459 187.509 35.1459C186.488 35.1459 185.772 35.6003 185.442 36.3599H185.336V32.6245H184.01V42.05Z" fill="#616161"/>
<path d="M194.672 36.2789C195.662 36.2789 196.309 36.97 196.34 38.0345H192.916C192.991 36.9762 193.682 36.2789 194.672 36.2789ZM196.334 40.2197C196.085 40.7489 195.531 41.0415 194.722 41.0415C193.651 41.0415 192.96 40.2882 192.916 39.0991V39.0244H197.704V38.5575C197.704 36.4283 196.564 35.1396 194.678 35.1396C192.767 35.1396 191.553 36.5155 191.553 38.682C191.553 40.8485 192.742 42.1808 194.684 42.1808C196.234 42.1808 197.318 41.4337 197.623 40.2197H196.334Z" fill="#616161"/>
<path d="M77.6535 50.4511C77.686 47.9296 79.0401 45.5437 81.1883 44.223C79.8331 42.2875 77.5632 41.0604 75.2016 40.9865C72.6827 40.7221 70.2408 42.4937 68.9572 42.4937C67.6488 42.4937 65.6726 41.0127 63.5445 41.0565C60.7706 41.1461 58.1847 42.7232 56.8351 45.1483C53.9341 50.171 56.098 57.5525 58.8769 61.6125C60.2673 63.6005 61.8922 65.8212 64.0184 65.7424C66.0989 65.6561 66.876 64.4157 69.3875 64.4157C71.8756 64.4157 72.6046 65.7424 74.774 65.6923C77.0065 65.6561 78.4131 63.6955 79.7547 61.6886C80.7537 60.2721 81.5224 58.7065 82.0323 57.0499C79.4087 55.9402 77.6566 53.2998 77.6535 50.4511Z" fill="#F17228"/>
<path d="M73.556 38.3165C74.7733 36.8552 75.373 34.9769 75.2278 33.0806C73.368 33.2759 71.6501 34.1647 70.4164 35.57C69.21 36.943 68.5821 38.7882 68.7008 40.6121C70.5613 40.6312 72.3902 39.7665 73.556 38.3165Z" fill="#F17228"/>
</g>
<defs>
<filter id="filter0_dd_15_716" x="0.5" y="0" width="260" height="140" filterUnits="userSpaceOnUse" color-interpolation-filters="sRGB">
<feFlood flood-opacity="0" result="BackgroundImageFix"/>
<feColorMatrix in="SourceAlpha" type="matrix" values="0 0 0 0 0 0 0 0 0 0 0 0 0 0 0 0 0 0 127 0" result="hardAlpha"/>
<feOffset dy="20"/>
<feGaussianBlur stdDeviation="20"/>
<feColorMatrix type="matrix" values="0 0 0 0 1 0 0 0 0 0.680498 0 0 0 0 0 0 0 0 0.29 0"/>
<feBlend mode="normal" in2="BackgroundImageFix" result="effect1_dropShadow_15_716"/>
<feColorMatrix in="SourceAlpha" type="matrix" values="0 0 0 0 0 0 0 0 0 0 0 0 0 0 0 0 0 0 127 0" result="hardAlpha"/>
<feOffset dy="5"/>
<feGaussianBlur stdDeviation="5"/>
<feColorMatrix type="matrix" values="0 0 0 0 1 0 0 0 0 0.680498 0 0 0 0 0 0 0 0 0.26 0"/>
<feBlend mode="normal" in2="effect1_dropShadow_15_716" result="effect2_dropShadow_15_716"/>
<feBlend mode="normal" in="SourceGraphic" in2="effect2_dropShadow_15_716" result="shape"/>
</filter>
</defs>
</svg>
