<svg width="60" height="10" viewBox="0 0 60 10" fill="none" xmlns="http://www.w3.org/2000/svg">
<path d="M10.1271 5.36429C10.1271 6.62129 9.75507 7.62179 9.00957 8.36879C8.16357 9.25679 7.05958 9.70079 5.70358 9.70079C4.40458 9.70079 3.29908 9.25079 2.39158 8.35079C1.48258 7.44929 1.02808 6.33329 1.02808 5.00129C1.02808 3.66779 1.48258 2.55179 2.39158 1.65179C3.29908 0.750293 4.40458 0.300294 5.70358 0.300294C6.34858 0.300294 6.96508 0.426293 7.55008 0.676793C8.13658 0.928793 8.60608 1.26329 8.95708 1.68179L8.16657 2.47379C7.57107 1.76129 6.75057 1.40579 5.70207 1.40579C4.75407 1.40579 3.93507 1.73879 3.24357 2.40479C2.55207 3.07079 2.20708 3.93629 2.20708 4.99979C2.20708 6.06329 2.55207 6.92879 3.24357 7.59479C3.93507 8.26079 4.75407 8.59379 5.70207 8.59379C6.70707 8.59379 7.54558 8.25929 8.21608 7.58879C8.65108 7.15229 8.90307 6.54479 8.97057 5.76629H5.70207V4.68479H10.0626C10.1076 4.92029 10.1271 5.14679 10.1271 5.36429Z" fill="#616161"/>
<path d="M17.0422 1.60538H12.9442V4.45838H16.6402V5.53988H12.9442V8.39288H17.0422V9.49988H11.7877V0.499878H17.0422V1.60538Z" fill="#616161"/>
<path d="M21.9185 9.49988H20.7621V1.60538H18.248V0.499878H24.4325V1.60538H21.9185V9.49988Z" fill="#616161"/>
<path d="M28.907 9.49988V0.499878H30.0635V9.49988H28.907Z" fill="#616161"/>
<path d="M35.1922 9.49988H34.0357V1.60538H31.5217V0.499878H37.7062V1.60538H35.1922V9.49988Z" fill="#616161"/>
<path d="M49.4134 8.33736C48.5284 9.24636 47.4289 9.70086 46.1134 9.70086C44.7979 9.70086 43.6984 9.24636 42.8149 8.33736C41.9299 7.42836 41.4889 6.31536 41.4889 4.99986C41.4889 3.68436 41.9299 2.57136 42.8149 1.66236C43.6984 0.753363 44.7979 0.297363 46.1134 0.297363C47.4214 0.297363 48.5194 0.754863 49.4074 1.66836C50.2954 2.58186 50.7394 3.69186 50.7394 4.99986C50.7394 6.31536 50.2969 7.42836 49.4134 8.33736ZM43.6684 7.58286C44.3344 8.25786 45.1489 8.59386 46.1134 8.59386C47.0779 8.59386 47.8939 8.25636 48.5584 7.58286C49.2244 6.90786 49.5589 6.04686 49.5589 4.99986C49.5589 3.95286 49.2244 3.09186 48.5584 2.41686C47.8939 1.74186 47.0779 1.40586 46.1134 1.40586C45.1489 1.40586 44.3344 1.74336 43.6684 2.41686C43.0039 3.09186 42.6694 3.95286 42.6694 4.99986C42.6694 6.04686 43.0039 6.90786 43.6684 7.58286Z" fill="#616161"/>
<path d="M52.3624 9.49988V0.499878H53.7694L58.1434 7.50038H58.1929L58.1434 5.76638V0.499878H59.2999V9.49988H58.0924L53.5159 2.15888H53.4664L53.5159 3.89288V9.49988H52.3624Z" fill="#616161"/>
<path d="M10.1271 5.36429C10.1271 6.62129 9.75507 7.62179 9.00957 8.36879C8.16357 9.25679 7.05958 9.70079 5.70358 9.70079C4.40458 9.70079 3.29908 9.25079 2.39158 8.35079C1.48258 7.44929 1.02808 6.33329 1.02808 5.00129C1.02808 3.66779 1.48258 2.55179 2.39158 1.65179C3.29908 0.750293 4.40458 0.300294 5.70358 0.300294C6.34858 0.300294 6.96508 0.426293 7.55008 0.676793C8.13658 0.928793 8.60608 1.26329 8.95708 1.68179L8.16657 2.47379C7.57107 1.76129 6.75057 1.40579 5.70207 1.40579C4.75407 1.40579 3.93507 1.73879 3.24357 2.40479C2.55207 3.07079 2.20708 3.93629 2.20708 4.99979C2.20708 6.06329 2.55207 6.92879 3.24357 7.59479C3.93507 8.26079 4.75407 8.59379 5.70207 8.59379C6.70707 8.59379 7.54558 8.25929 8.21608 7.58879C8.65108 7.15229 8.90307 6.54479 8.97057 5.76629H5.70207V4.68479H10.0626C10.1076 4.92029 10.1271 5.14679 10.1271 5.36429Z" stroke="#212121" stroke-width="0.2" stroke-miterlimit="10"/>
<path d="M17.0422 1.60538H12.9442V4.45838H16.6402V5.53988H12.9442V8.39288H17.0422V9.49988H11.7877V0.499878H17.0422V1.60538Z" stroke="#212121" stroke-width="0.2" stroke-miterlimit="10"/>
<path d="M21.9185 9.49988H20.7621V1.60538H18.248V0.499878H24.4325V1.60538H21.9185V9.49988Z" stroke="#212121" stroke-width="0.2" stroke-miterlimit="10"/>
<path d="M28.907 9.49988V0.499878H30.0635V9.49988H28.907Z" stroke="#212121" stroke-width="0.2" stroke-miterlimit="10"/>
<path d="M35.1922 9.49988H34.0357V1.60538H31.5217V0.499878H37.7062V1.60538H35.1922V9.49988Z" stroke="#212121" stroke-width="0.2" stroke-miterlimit="10"/>
<path d="M49.4134 8.33736C48.5284 9.24636 47.4289 9.70086 46.1134 9.70086C44.7979 9.70086 43.6984 9.24636 42.8149 8.33736C41.9299 7.42836 41.4889 6.31536 41.4889 4.99986C41.4889 3.68436 41.9299 2.57136 42.8149 1.66236C43.6984 0.753363 44.7979 0.297363 46.1134 0.297363C47.4214 0.297363 48.5194 0.754863 49.4074 1.66836C50.2954 2.58186 50.7394 3.69186 50.7394 4.99986C50.7394 6.31536 50.2969 7.42836 49.4134 8.33736ZM43.6684 7.58286C44.3344 8.25786 45.1489 8.59386 46.1134 8.59386C47.0779 8.59386 47.8939 8.25636 48.5584 7.58286C49.2244 6.90786 49.5589 6.04686 49.5589 4.99986C49.5589 3.95286 49.2244 3.09186 48.5584 2.41686C47.8939 1.74186 47.0779 1.40586 46.1134 1.40586C45.1489 1.40586 44.3344 1.74336 43.6684 2.41686C43.0039 3.09186 42.6694 3.95286 42.6694 4.99986C42.6694 6.04686 43.0039 6.90786 43.6684 7.58286Z" stroke="#212121" stroke-width="0.2" stroke-miterlimit="10"/>
<path d="M52.3624 9.49988V0.499878H53.7694L58.1434 7.50038H58.1929L58.1434 5.76638V0.499878H59.2999V9.49988H58.0924L53.5159 2.15888H53.4664L53.5159 3.89288V9.49988H52.3624Z" stroke="#212121" stroke-width="0.2" stroke-miterlimit="10"/>
</svg>
