<svg width="128" height="27" viewBox="0 0 128 27" fill="none" xmlns="http://www.w3.org/2000/svg">
<path d="M41.204 7.6268C37.676 7.6268 34.8005 10.3103 34.8005 14.0063C34.8005 17.6798 37.676 20.3858 41.204 20.3858C44.7335 20.3858 47.609 17.6798 47.609 14.0063C47.6075 10.3103 44.732 7.6268 41.204 7.6268ZM41.204 17.8748C39.2705 17.8748 37.604 16.2803 37.604 14.0078C37.604 11.7113 39.272 10.1408 41.204 10.1408C43.1375 10.1408 44.804 11.7113 44.804 14.0078C44.804 16.2788 43.1375 17.8748 41.204 17.8748ZM27.233 7.6268C23.705 7.6268 20.8295 10.3103 20.8295 14.0063C20.8295 17.6798 23.705 20.3858 27.233 20.3858C30.7625 20.3858 33.638 17.6798 33.638 14.0063C33.638 10.3103 30.7625 7.6268 27.233 7.6268ZM27.233 17.8748C25.2995 17.8748 23.633 16.2803 23.633 14.0078C23.633 11.7113 25.301 10.1408 27.233 10.1408C29.1665 10.1408 30.833 11.7113 30.833 14.0078C30.8345 16.2788 29.1665 17.8748 27.233 17.8748ZM10.616 9.5858V12.2918H17.093C16.8995 13.8143 16.3925 14.9258 15.6185 15.6983C14.6765 16.6403 13.202 17.6798 10.616 17.6798C6.62899 17.6798 3.51199 14.4653 3.51199 10.4783C3.51199 6.4913 6.62899 3.2768 10.616 3.2768C12.767 3.2768 14.3375 4.1228 15.497 5.2103L17.4065 3.3008C15.7865 1.7543 13.637 0.570802 10.616 0.570802C5.15449 0.570802 0.562988 5.0168 0.562988 10.4783C0.562988 15.9398 5.15449 20.3858 10.616 20.3858C13.5635 20.3858 15.788 19.4183 17.5265 17.6063C19.3145 15.8183 19.871 13.3043 19.871 11.2748C19.871 10.6478 19.823 10.0673 19.7255 9.5843H10.616V9.5858ZM78.578 11.6873C78.047 10.2623 76.427 7.6268 73.1165 7.6268C69.83 7.6268 67.0985 10.2128 67.0985 14.0063C67.0985 17.5823 69.806 20.3858 73.43 20.3858C76.3535 20.3858 78.0455 18.5978 78.7475 17.5583L76.5725 16.1078C75.848 17.1713 74.8565 17.8718 73.43 17.8718C72.005 17.8718 70.9895 17.2193 70.337 15.9383L78.8675 12.4103L78.578 11.6873ZM69.878 13.8143C69.806 11.3483 71.7875 10.0928 73.214 10.0928C74.3255 10.0928 75.2675 10.6493 75.5825 11.4458L69.878 13.8143ZM62.9435 20.0003H65.7455V1.2488H62.9435V20.0003ZM58.3505 9.0533H58.2545C57.626 8.3033 56.417 7.6268 54.896 7.6268C51.7055 7.6268 48.782 10.4303 48.782 14.0318C48.782 17.6078 51.7055 20.3873 54.896 20.3873C56.4185 20.3873 57.626 19.7108 58.2545 18.9383H58.3505V19.8563C58.3505 22.2968 57.0455 23.6018 54.944 23.6018C53.228 23.6018 52.1645 22.3703 51.7295 21.3308L49.289 22.3463C49.9895 24.0368 51.8495 26.1158 54.944 26.1158C58.2305 26.1158 61.01 24.1823 61.01 19.4693V8.0153H58.352V9.0533H58.3505ZM55.1375 17.8748C53.204 17.8748 51.5855 16.2548 51.5855 14.0318C51.5855 11.7833 53.204 10.1408 55.1375 10.1408C57.0455 10.1408 58.544 11.7833 58.544 14.0318C58.544 16.2548 57.0455 17.8748 55.1375 17.8748ZM91.709 1.2488H85.0025V20.0003H87.8V12.8963H91.7075C94.8095 12.8963 97.8605 10.6508 97.8605 7.0733C97.8605 3.4958 94.811 1.2488 91.709 1.2488ZM91.781 10.2863H87.8V3.8588H91.781C93.8735 3.8588 95.0615 5.5913 95.0615 7.0733C95.0615 8.5253 93.8735 10.2863 91.781 10.2863ZM109.079 7.5938C107.052 7.5938 104.954 8.4863 104.085 10.4648L106.569 11.5013C107.1 10.4648 108.09 10.1258 109.127 10.1258C110.574 10.1258 112.046 10.9943 112.07 12.5378V12.7313C111.563 12.4418 110.477 12.0083 109.151 12.0083C106.473 12.0083 103.746 13.4798 103.746 16.2293C103.746 18.7388 105.942 20.3543 108.402 20.3543C110.283 20.3543 111.321 19.5098 111.972 18.5198H112.068V19.9673H114.771V12.7778C114.773 9.4508 112.286 7.5938 109.079 7.5938ZM108.74 17.8703C107.825 17.8703 106.545 17.4113 106.545 16.2773C106.545 14.8298 108.138 14.2748 109.514 14.2748C110.742 14.2748 111.323 14.5403 112.07 14.9018C111.852 16.6403 110.357 17.8703 108.74 17.8703ZM124.614 8.0033L121.406 16.1333H121.31L117.98 8.0033H114.965L119.958 19.3658L117.111 25.6868H120.03L127.727 8.0033H124.614ZM99.4055 20.0003H102.203V1.2488H99.4055V20.0003Z" fill="#212121"/>
</svg>
