<svg width="314" height="522" viewBox="0 0 314 522" fill="none" xmlns="http://www.w3.org/2000/svg">
<path fill-rule="evenodd" clip-rule="evenodd" d="M47.7508 0.259277C21.8634 0.259277 0.877563 21.2452 0.877563 47.1326V606.601C0.877563 632.489 21.8635 653.475 47.7509 653.475H267.066C292.953 653.475 313.939 632.489 313.939 606.601V47.1325C313.939 21.2452 292.953 0.259277 267.066 0.259277H47.7508ZM47.3207 10.5801C27.3708 10.5801 11.1982 26.7527 11.1982 46.7026V606.602C11.1982 626.552 27.3709 642.724 47.3208 642.724H267.496C287.446 642.724 303.619 626.552 303.619 606.602V46.7026C303.619 26.7527 287.446 10.5801 267.496 10.5801H47.3207Z" fill="white"/>
</svg>
