<svg width="311" height="419" viewBox="0 0 311 419" fill="none" xmlns="http://www.w3.org/2000/svg">
<path fill-rule="evenodd" clip-rule="evenodd" d="M47.1971 0.0341797C21.5843 0.0341797 0.820923 20.7975 0.820923 46.4104V599.946C0.820923 625.559 21.5842 646.323 47.1971 646.323H264.187C289.799 646.323 310.563 625.559 310.563 599.946V46.4104C310.563 20.7975 289.8 0.0341797 264.187 0.0341797H47.1971ZM46.7717 10.2455C27.0334 10.2455 11.0323 26.2465 11.0323 45.9849V599.946C11.0323 619.685 27.0333 635.686 46.7717 635.686H264.612C284.351 635.686 300.352 619.685 300.352 599.947V45.985C300.352 26.2466 284.351 10.2455 264.612 10.2455H46.7717Z" fill="white"/>
</svg>
